<?xml version='1.0' encoding='utf-8'?>
<!-- Generator: imaengine 6.0   -->
<svg xmlns:xlink="http://www.w3.org/1999/xlink" xmlns="http://www.w3.org/2000/svg" viewBox="0,0,1208,670" style="enable-background:new 0 0 1208 670;" version="1.1">
<defs/>
<g id="layer0">
<path d="M1204.25,0C1205.58,1.61803 1206.84,3.28388 1208,5.03125L1208,0L1204.25,0ZM366.688,93.3125C366.045,93.3593 365.392,93.3713 364.75,93.4062C364.777,94.205 364.803,95.0238 364.812,95.6562C365.047,95.2769 365.319,94.6189 365.531,94.3438C365.796,93.9967 366.338,93.6578 366.688,93.3125ZM764.156,95.9062C723.591,95.8392 667.147,95.8584 603.188,96L377.844,96.5L377.312,321.75L376.781,547L603.656,546.75L830.5,546.5L830.75,321.875C830.928,163.017 830.764,111.65 830.031,101.031C827.716,99.652 825.546,98.0863 823.469,96.3438C819.006,96.1356 800.837,95.9666 764.156,95.9062ZM681.5,154.688C687.609,154.825 694.17,156.403 697.5,158.531C704.251,162.85 713.039,175.078 714.469,182.125C714.845,183.985 715.823,187.299 716.625,189.5C718.866,195.624 718.163,233.417 715.594,245.25C713.24,256.078 713.942,258.303 720.219,260.125C722.581,260.811 725.397,261.93 726.5,262.594C727.6,263.258 730.072,264.139 732,264.531C733.925,264.924 736.625,265.811 738,266.531C739.375,267.252 743.428,269.286 747,271.031C766.571,280.588 778.35,290.254 785.906,302.969C789.387,308.827 790.215,311.24 790.688,316.906C791.003,320.668 790.966,325.744 790.594,328.188C789.829,333.288 783.812,343.081 778.219,348.344C768.843,357.166 764.45,360.995 763.594,361C763.087,361.003 761.962,361.627 761.094,362.406C759.1,364.198 741.915,373 740.406,373C739.788,373 738.187,373.831 736.875,374.844C735.563,375.855 732.697,377.174 730.5,377.781C721.009,380.399 715.603,382.763 714.875,384.594C713.976,386.854 714.678,393.481 716.531,400.5C718.282,407.129 719.149,431.227 718.062,442.5C716.572,457.972 710.604,472.1 702.688,478.875C696.927,483.803 692.903,485.246 683.5,485.719C670.873,486.354 660.485,484.193 650.875,478.969C648.875,477.882 646.582,477 645.781,477C644.979,477 643.494,476.099 642.5,475C641.504,473.9 640.157,473 639.5,473C638.843,473 636.325,471.556 633.906,469.781C631.486,468.007 626.998,464.902 623.938,462.906C620.878,460.909 616.239,457.117 613.625,454.469C607.6,448.357 604.357,446.543 602.438,448.25C601.674,448.929 599.879,450.401 598.438,451.5C596.998,452.6 595.068,454.181 594.156,455.031C588.134,460.648 578.97,467.175 566.5,474.719C559.602,478.892 548.068,483.523 539.5,485.531C525.73,488.761 511.488,485.491 503.812,477.344C500.803,474.149 494,462.486 494,460.531C494,459.831 493.099,456.443 492,453C490.28,447.615 490,443.997 490,427.062C490,412.96 490.415,405.973 491.438,402.438C493.601,394.973 494.353,386.54 493.094,384.188C492.493,383.065 490.543,381.852 488.75,381.469C486.958,381.087 483.62,379.914 481.312,378.875C479.005,377.837 476.45,377 475.656,377C474.861,377 469.991,374.744 464.844,372C459.696,369.256 454.151,366.318 452.5,365.469C438.218,358.128 426,346.619 419.625,334.5C417.373,330.218 417,328.268 417,320.781C417,313.048 417.356,311.392 420.031,306.125C423.849,298.612 429.995,291.749 439.25,284.688C446.809,278.92 451.089,276.354 462,271.031C465.575,269.287 469.696,267.222 471.156,266.438C472.616,265.653 474.408,265 475.156,265C475.905,265 478.085,264.176 480,263.156C481.917,262.137 485.148,260.995 487.156,260.625C489.164,260.255 491.406,259.246 492.125,258.375C493.846,256.302 493.472,249.38 491.281,242.219C488.722,233.855 488.724,192.114 491.281,187.312C492.22,185.552 493,183.275 493,182.281C493,179.821 497.519,171.492 501.906,165.844C506.918,159.391 513.437,156.239 523.5,155.438C535.745,154.463 544.597,156.404 560,163.375C564.091,165.227 581.806,176.537 583,178.062C583.275,178.414 584.535,179.264 585.812,179.938C587.092,180.611 588.892,181.828 589.812,182.656C599.44,191.31 600.512,191.985 604.75,192C607.087,192.008 609,191.543 609,191C609,189.772 628.029,174.054 632,172C633.596,171.175 638.605,168.345 643.125,165.719C647.646,163.093 652.521,160.67 653.938,160.344C655.354,160.017 657.507,159.119 658.75,158.344C661.24,156.789 675.212,154.546 681.5,154.688ZM529.344,173C520.438,173 516.115,175.487 512.5,182.625C507.621,192.263 506.113,213.624 508.844,234.5C510.601,247.923 510.754,248.626 512.562,250.438C514.495,252.37 517.695,252.424 522.125,250.625C523.98,249.872 528.65,248.963 532.5,248.594C536.35,248.224 541.299,247.422 543.5,246.812C545.7,246.203 550.383,245.425 553.906,245.094C560.252,244.499 560.341,244.453 563.719,239.5C565.594,236.75 569.295,232.026 571.938,229C574.58,225.975 578.043,221.92 579.625,220C581.208,218.08 583.89,215.101 585.594,213.375C590.377,208.527 590.527,207.198 586.594,203.625C580.357,197.96 574.968,193.85 568.094,189.5C567.225,188.95 564.475,187.101 562,185.406C556.249,181.468 544.903,176.009 542.406,175.969C541.35,175.951 539.63,175.276 538.562,174.469C537.269,173.491 534.182,173 529.344,173ZM678.656,173C672.379,173 669.275,173.547 664.156,175.594C655.859,178.913 645.59,184.368 641.594,187.562C639.886,188.928 638.024,190.408 637.438,190.875C636.853,191.342 635.368,192.272 634.125,192.938C632.881,193.604 631.108,194.82 630.188,195.625C629.267,196.429 626.12,199.155 623.219,201.688C616.999,207.118 617.037,208.208 623.656,215C626.068,217.475 632.637,225.238 638.25,232.25L648.469,245L653.562,245C656.374,245 660.866,245.666 663.531,246.469C666.195,247.27 671.553,248.224 675.438,248.594C679.324,248.963 683.625,249.862 685,250.594C688.326,252.364 694.46,252.339 695.938,250.562C697.402,248.797 700.474,223.162 700.438,213C700.369,195.18 696.525,181.912 689.688,175.75C686.893,173.234 685.964,173 678.656,173ZM603.938,220.5L595.469,229.406C588.034,237.222 585.907,240.598 587.438,242.094C587.672,242.323 595.32,242.525 604.438,242.562C619.902,242.625 621,242.503 621,240.781C621,238.951 620.28,238.053 609.531,226.5L603.938,220.5ZM602.969,261.219C567.292,261.607 570.527,260.82 564.25,270.5C562.469,273.247 560.331,276.394 559.5,277.469C558.669,278.543 558,279.95 558,280.625C558,281.299 557.428,282.461 556.719,283.188C555,284.949 546,300.634 546,301.875C546,302.411 545.423,303.461 544.719,304.188C544.015,304.914 542.102,308.149 540.469,311.406C536.624,319.072 536.698,323.726 540.812,331C542.524,334.025 545.618,339.875 547.656,344C551.233,351.24 554.134,355.958 556.75,358.781C557.438,359.523 558,360.755 558,361.5C558,362.246 558.583,363.459 559.281,364.188C559.981,364.914 562.168,367.974 564.156,371C568.841,378.121 570.738,379.752 575,380.312C576.925,380.564 591.1,380.697 606.5,380.625C631.402,380.509 634.852,380.284 637.781,378.688C639.593,377.699 641.611,375.675 642.25,374.188C642.889,372.701 644.6,369.926 646.062,368C647.524,366.075 649.486,363.151 650.406,361.5C651.328,359.85 653.139,356.699 654.438,354.5C655.736,352.3 658.245,347.8 660,344.5C661.754,341.2 664.68,335.687 666.531,332.25C671.393,323.223 671.727,320.249 668.594,313.625C667.164,310.602 666,307.705 666,307.188C666,306.671 665.403,305.751 664.688,305.156C663.972,304.562 661.715,300.792 659.656,296.781C655.208,288.111 655.047,287.864 648,277.031C644.97,272.374 642.176,267.759 641.781,266.781C641.388,265.805 639.588,264.076 637.781,262.938C634.607,260.937 633.439,260.887 602.969,261.219ZM665.094,265C662.656,265 662.331,267.199 664.5,269C665.325,269.685 666,270.817 666,271.5C666,272.184 666.856,273.82 667.906,275.156C669.608,277.32 672.906,283.211 678.25,293.594C679.217,295.472 680.221,297 680.469,297C681.413,297 685.817,288.363 686.469,285.25C686.843,283.457 687.835,280.635 688.656,279C689.472,277.365 689.988,274.578 689.812,272.781C689.505,269.589 689.358,269.473 683.531,268.75C680.253,268.343 675.231,267.331 672.375,266.5C669.519,265.67 666.245,265 665.094,265ZM543.906,265.25C543.371,265.172 542.643,265.198 541.75,265.375C539.962,265.729 534.225,266.822 529,267.781C523.775,268.741 518.991,269.854 518.375,270.25C517.04,271.109 517.98,276.725 520.375,282.219C521.266,284.264 522,286.706 522,287.656C522,288.607 523.182,291.106 524.625,293.188C527.471,297.295 528.45,297.347 529.406,293.531C529.748,292.17 531.316,289.137 532.906,286.781C534.495,284.425 537.249,279.8 539.031,276.5C540.814,273.2 542.878,269.775 543.625,268.906C545.453,266.784 545.511,265.483 543.906,265.25ZM499.844,276.75L495.188,277.281C492.616,277.587 489.151,278.544 487.5,279.406C485.85,280.269 483.963,280.996 483.281,281C481.983,281.006 474.029,284.715 463.812,290.094C446.655,299.125 434,312.255 434,321.031C434,329.495 446.088,342.146 462.562,350.938C465.732,352.629 468.807,354.4 469.406,354.875C470.006,355.35 472.301,356.356 474.5,357.094C476.7,357.833 479.385,359.014 480.469,359.719C481.554,360.425 483.13,361.011 483.969,361.031C484.809,361.05 487.301,361.953 489.5,363.031C491.7,364.108 495.056,364.884 496.969,364.75C500.307,364.519 500.507,364.275 501.625,359.219C502.266,356.318 503.256,353.393 503.812,352.719C504.369,352.045 505.159,349.699 505.562,347.5C505.967,345.3 507.137,341.915 508.156,340C509.176,338.083 510.001,336.048 510,335.469C510,334.889 510.901,332.658 512,330.5C514.604,325.393 514.644,317.008 512.094,311.562C508.3,303.463 506.19,298.128 505.469,294.844C505.064,293.001 504.142,290.152 503.406,288.5C502.669,286.848 501.543,283.534 500.938,281.125L499.844,276.75ZM712.062,277C708.56,277 707.798,277.383 706.969,279.562C706.432,280.973 706,283.39 706,284.938C706,286.484 705.361,288.269 704.594,288.906C703.826,289.543 702.909,291.735 702.531,293.75C702.153,295.765 701.186,298.293 700.406,299.406C699.627,300.519 699,302.088 699,302.875C699,303.662 697.798,306.828 696.312,309.906C692.629,317.556 692.633,324.697 696.312,331.5C697.798,334.246 699.012,337.171 699.031,338C699.049,338.829 699.724,340.37 700.531,341.438C701.339,342.505 701.999,344.305 702,345.438C702.003,346.57 702.733,348.849 703.625,350.5C704.517,352.15 705.647,355.49 706.125,357.906C706.602,360.323 707.506,362.911 708.125,363.656C709.694,365.547 713.78,365.277 718.5,363C720.7,361.937 723.104,361.051 723.844,361.031C724.584,361.013 726.381,360.339 727.844,359.531C729.304,358.724 732.072,357.394 734,356.562C735.925,355.731 738.178,354.629 739,354.125C739.825,353.623 741.625,352.693 743,352.062C754.085,346.98 768.138,335.081 772,327.5C774.568,322.463 774.508,319.097 771.812,313.781C769.589,309.401 759.094,298.539 755.5,296.906C754.4,296.406 751.478,294.448 749,292.562C746.525,290.676 743.561,289.099 742.406,289.062C741.254,289.026 739.495,288.099 738.5,287C737.505,285.9 736.244,285 735.688,285C734.313,285 722.148,280.287 718.844,278.469C717.384,277.665 714.329,277 712.062,277ZM602.562,286C608.069,286 620.381,290.793 625.188,294.812C628.397,297.497 633.468,304.751 634.531,308.156C634.934,309.445 635.874,311.385 636.625,312.469C638.749,315.537 638.388,326.317 636,331C634.9,333.156 634,335.432 634,336.062C634,336.693 632.989,338.446 631.75,339.969C630.512,341.491 628.662,343.882 627.656,345.281C624.99,348.991 619.088,352.668 614.5,353.469C612.3,353.853 610.05,354.512 609.5,354.938C607.089,356.804 596.838,356.875 594.5,355.031C593.95,354.597 591.999,353.894 590.156,353.5C579.461,351.211 569.705,338.297 567.312,323.25C566.238,316.494 570.835,304.582 577.719,296.375C581.18,292.249 596.161,286 602.562,286ZM680.781,344.594C680.315,344.349 679.929,344.719 679.312,345.562C678.582,346.561 678,348.123 678,349.031C678,349.941 677.1,351.506 676,352.5C674.9,353.496 674,354.823 674,355.438C674,356.052 672.214,359.242 670.031,362.531C667.847,365.819 666.046,368.9 666.031,369.406C666.016,369.913 665.268,371.14 664.375,372.125C663.483,373.11 663,374.593 663.312,375.406C663.736,376.511 664.855,376.748 667.688,376.312C669.779,375.991 672.211,375.373 673.062,374.938C673.914,374.504 677.513,373.824 681.062,373.438C688.495,372.628 690,371.728 690,368.188C690,364.878 685.579,352.088 682.812,347.406C681.813,345.713 681.247,344.839 680.781,344.594ZM527.938,345C526.479,345 522.251,352.192 521.469,356C521.073,357.925 520.13,360.385 519.375,361.469C518.62,362.554 518,365.128 518,367.188C518,371.465 519.873,372.989 525.188,373.031C527.011,373.046 531.65,373.915 535.5,374.969C539.35,376.021 543.062,376.906 543.75,376.938C545.197,377.007 545.455,373.391 544.062,372.531C543.548,372.213 540.773,367.794 537.875,362.719C534.979,357.642 532.044,352.932 531.375,352.25C530.706,351.568 529.864,349.659 529.5,348C529.136,346.344 528.437,345 527.938,345ZM514.906,389.469C513.114,389.619 512.038,390.38 511.438,391.781C510.443,394.095 508.034,413.404 507.344,424.5C506.677,435.243 509.073,452.265 512.031,457.781C513.115,459.802 514,461.959 514,462.562C514,463.166 515.687,464.845 517.75,466.281C521.146,468.642 522.256,468.854 529.5,468.594C537.814,468.297 544.658,466.289 553,461.719C566.494,454.329 569.409,452.591 571.125,450.875C572.161,449.839 573.428,449 573.938,449C574.448,449 575.48,448.365 576.25,447.594C577.022,446.822 580.451,443.886 583.844,441.062C590.092,435.863 591.761,432.165 588.688,430.312C587.518,429.608 585.148,427.038 574.125,414.5C572.674,412.85 569.247,408.457 566.5,404.75C562.62,399.511 560.719,397.829 558,397.156C548.168,394.728 543.855,393.942 537,393.406C532.875,393.084 526.478,391.94 522.781,390.844C519.225,389.791 516.7,389.319 514.906,389.469ZM693.594,389.469C691.515,389.079 688.277,389.6 684.469,390.938C681.221,392.079 676.278,393 673.469,393C670.662,393 666.15,393.627 663.438,394.406C660.725,395.185 656.201,396.136 653.375,396.5C647.826,397.215 645.495,399.005 640.312,406.625C637.535,410.711 630.503,418.956 622.25,427.781C619.913,430.281 618,433.055 618,433.969C618,435.909 624.634,442.073 632.031,447C633.27,447.825 635.439,449.434 636.875,450.562C641.161,453.93 650.257,459.665 654,461.375C655.925,462.252 658.176,463.392 659,463.906C659.825,464.423 663.199,465.721 666.5,466.812C670.033,467.981 675.464,468.85 679.688,468.906C685.971,468.99 687.22,468.675 689.844,466.469C694.974,462.152 697.542,456.311 699.938,443.531C702.491,429.943 702.311,426.105 697.844,396.781C696.853,390.284 696.711,390.053 693.594,389.469ZM586.5,398.5L586.812,400.812C586.992,402.092 587.893,403.962 588.812,404.938C589.733,405.911 593.364,409.909 596.875,413.844C600.388,417.778 603.583,421 603.969,421C605.914,421 620.684,403.312 621.188,400.375C621.491,398.608 620.541,398.5 604,398.5L586.5,398.5ZM842.938,468.656C842.933,470.194 842.909,470.621 842.906,472.094C843.048,471.788 843.197,471.489 843.344,471.188C843.198,470.413 843.093,469.407 842.938,468.656ZM639.719,554.125C639.794,554.13 640.052,554.152 640.125,554.156C644.07,554.372 648.772,554.325 654.438,554.156C649.359,554.145 644.314,554.126 639.719,554.125ZM1208,607.5C1207.35,613.163 1207,616.598 1206.41,621.906C1207.05,623.467 1207.51,625.114 1208,626.75L1208,607.5ZM1208,654.969C1206.47,660.166 1204.22,665.026 1201.19,669.375C1201.17,669.541 1201.14,669.835 1201.12,670L1208,670L1208,654.969Z" fill-rule="evenodd" fill="#000000"/>
</g>
</svg>
