<?xml version='1.0' encoding='utf-8'?>
<!-- Generator: imaengine 6.0   -->
<svg xmlns:xlink="http://www.w3.org/1999/xlink" xmlns="http://www.w3.org/2000/svg" viewBox="0,0,423,336" style="enable-background:new 0 0 423 336;" version="1.1">
<defs/>
<g id="layer0">
<path d="M202.5,322.283C201.4,322.016 190.375,318.964 178,315.501C130.305,302.154 111.331,297 109.89,297C109.066,297 106.095,295.855 103.287,294.456C97.4265,291.535 95,287.133 95,279.419C95,276.922 94.3188,267.594 93.4863,258.69C91.3606,235.956 85.5103,170.947 82.49,136.5C81.0915,120.55 79.0718,98.275 78.0018,87C75.8413,64.2347 73.4303,36.9847 72.4279,24C72.067,19.325 71.1841,14.2655 70.4659,12.7568L69.16,10.0135L212.009,9.75676C347.962,9.51239 354.781,9.58442 353.275,11.2487C352.089,12.5589 351.228,18.2015 349.839,33.7487C348.82,45.1619 346.647,68.675 345.012,86C343.376,103.325 341.56,123.35 340.977,130.5C340.394,137.65 338.338,160.825 336.408,182C329.94,252.964 328.005,275.472 328.003,279.782C328,284.877 326.055,289.939 323.012,292.774C321.798,293.905 317.811,295.609 314.152,296.561C305.661,298.769 242.966,315.892 228.577,319.933C218.174,322.854 208.462,323.729 202.5,322.283ZM242.13,310.044C256.083,306.218 277.922,300.222 290.661,296.718C303.399,293.214 315.024,289.559 316.494,288.596C320.68,285.853 321.655,281.909 323.44,260.5C324.357,249.5 326.193,229.475 327.519,216C328.846,202.525 331.082,177.775 332.488,161C333.893,144.225 335.728,123.3 336.566,114.5C337.403,105.7 338.526,93.775 339.062,88C339.597,82.225 340.679,70.975 341.465,63C343.513,42.2331 344.323,27.5938 343.559,25.1862C343.195,24.0401 342.065,22.8382 341.048,22.5153C340.031,22.1925 338.917,20.8035 338.571,19.4288C338.218,18.0216 336.835,16.5077 335.407,15.9646C332.378,14.8128 90.5004,14.7489 87.5627,15.8991C86.4972,16.3163 85.107,18.1971 84.4735,20.0788C83.8399,21.9605 83.1046,23.275 82.8394,23C82.5741,22.725 81.5396,23.3175 80.5405,24.3167C78.9134,25.9438 78.7941,27.3004 79.398,37.3167C79.7688,43.4675 80.9668,57.725 82.0604,69C83.1539,80.275 84.7043,96.25 85.5058,104.5C86.3072,112.75 87.8976,130.525 89.0399,144C92.8039,188.401 100.693,274.822 101.519,280.707C102.183,285.435 105.72,289.132 111.225,290.851C115.684,292.244 165.769,306.048 202,315.871C210.058,318.055 216.122,317.175 242.13,310.044ZM207.157,307.063C200.837,305.459 201.091,304 207.689,304C214.242,304 214.741,303.879 265,290.132C301.638,280.111 306.547,278.32 308.023,274.44C308.559,273.031 310.135,258.968 311.526,243.189C312.917,227.41 315.152,202.35 316.493,187.5C317.834,172.65 319.858,149.7 320.991,136.5C323.843,103.253 328.787,50.3188 330.049,39.5119C330.853,32.6303 331.615,29.9539 333.299,28.0923L335.5,25.6608L333.027,27.3304C330.782,28.8465 324.698,29 266.837,29C230.408,29 202.881,28.6166 202.565,28.1048C202.26,27.6124 202.796,26.8249 203.756,26.3548C204.715,25.8847 234.525,25.3887 270,25.2526C305.475,25.1165 335.073,24.7891 335.773,24.5251C336.736,24.162 336.797,24.511 336.023,25.9568C335.46,27.0082 335,30.2606 334.999,33.1843C334.999,36.1079 333.444,54.475 331.544,74C329.643,93.525 327.597,116.025 326.996,124C325.697,141.231 323.322,167.95 321.974,180.5C321.442,185.45 319.428,208.175 317.499,231C315.57,253.825 313.526,274.174 312.957,276.221C311.287,282.224 309.412,283.06 279,291.353C269.925,293.828 253.451,298.361 242.391,301.427C221.745,307.15 213.005,308.548 207.157,307.063ZM204.5,271.971C202.3,271.526 189.7,268.038 176.5,264.219C163.3,260.4 149.458,256.488 145.74,255.524C132.578,252.113 131.093,249.436 129.369,226C128.66,216.375 128.063,204.254 128.04,199.064C128.005,190.712 127.742,189.345 125.75,187.153C124.513,185.792 124.11,185.031 124.857,185.464C125.603,185.896 136.403,186.327 148.857,186.42C172.099,186.595 178.478,187.477 179.709,190.684C180.038,191.542 179.51,194.463 178.534,197.175C175.512,205.579 177.993,213.849 184.328,216.489C190.38,219.012 205.192,222 211.648,222C219.094,222 236.973,217.787 241.578,214.947C243.271,213.903 245.205,211.846 245.874,210.376C247.247,207.364 249.317,181.991 248.388,179.569C247.851,178.169 241.539,177.999 189.643,177.986C157.664,177.979 130.514,177.708 129.31,177.385C126.006,176.499 124.082,169.465 122.808,153.614C121.224,133.918 121.664,133.235 140.888,125.507C158.147,118.57 175.405,110.911 176.806,109.569C177.855,108.563 175.12,108.188 162.897,107.659C154.529,107.296 142.833,107 136.906,107C123.578,107 121.442,106.253 119.004,100.741C116.995,96.2002 114.568,74.209 115.17,66L115.5,61.5L123.5,60.8005C132.931,59.9758 302.803,60.9942 305.006,61.8886C306.324,62.4237 306.38,64.692 305.453,80.0632C304.002,104.121 303.499,104.848 282,113.887C264.382,121.295 246.5,129.72 246.5,130.613C246.5,131.101 257.93,131.807 271.9,132.183C291.16,132.701 297.52,133.185 298.212,134.183C299.479,136.012 298.568,155.355 295.607,189.5C294.224,205.45 292.81,223 292.465,228.5C291.204,248.595 288.747,252.258 273.999,256.032C262.442,258.99 230.816,268.366 223.775,270.922C217.903,273.053 211.554,273.399 204.5,271.971ZM222.072,265.497C224.507,264.67 238.085,260.674 252.245,256.616C266.404,252.557 279.11,248.503 280.481,247.605C285.448,244.35 286.029,242.236 287.557,221.844C288.354,211.205 289.441,197.775 289.972,192C293.366,155.09 294.115,144.428 293.534,141.329L292.879,137.838L254.189,138.394C232.91,138.7 212.635,139.229 209.132,139.57C200.898,140.371 201.752,138.937 211.227,136.049C226.108,131.514 233.531,128.705 257.717,118.454C291.203,104.261 291.773,103.989 295.041,100.647C298.34,97.2725 298.592,96.3086 300.038,81.5C300.628,75.45 301.671,69.375 302.355,68L303.597,65.5L213.639,65.7606C132.687,65.9951 123.438,65.8615 121.246,64.4258C118.96,62.9275 118.846,62.9421 119.382,64.6651C119.695,65.6743 120.635,72.7042 121.47,80.2872C123.247,96.4398 124.489,99.5285 129.757,100.904C134.545,102.154 200.987,101.467 210.5,100.068C219.807,98.7005 222,98.7465 222,100.31C222,101.128 217.77,102.785 210.721,104.726C204.518,106.435 191.13,111.28 180.971,115.492C170.812,119.704 156.2,125.627 148.5,128.654C127.474,136.919 125.858,139.179 128.459,156.691C129.754,165.402 131.637,171.429 133.273,172.092C133.398,172.143 160.044,172.401 192.487,172.666C235.269,173.016 251.86,173.469 252.878,174.313C254.022,175.263 254.159,178.155 253.618,189.989C252.65,211.192 252.218,213.628 248.826,217.021C247.23,218.616 243.579,220.616 240.712,221.464C223.44,226.574 217.005,228 211.221,228C203.845,228 184.406,223.803 178.343,220.901C173.808,218.731 171,214.273 171,209.246C171,207.622 170.716,203.573 170.368,200.247C169.634,193.221 168.507,192.336 159.028,191.345C151.853,190.595 131.812,191.887 132.533,193.053C132.825,193.526 133.724,203.909 134.53,216.125C136.099,239.883 136.984,243.564 142,247.166C144.074,248.656 158.783,253.158 202,265.533C208.2,267.308 216.781,267.293 222.072,265.497Z" fill-rule="evenodd" fill="#000000"/>
</g>
</svg>
