<?xml version="1.0" encoding="UTF-8"?>
<svg id="Layer_1" xmlns="http://www.w3.org/2000/svg" version="1.1" viewBox="0 0 500 500">
  <!-- Generator: Adobe Illustrator 29.3.1, SVG Export Plug-In . SVG Version: 2.1.0 Build 151)  -->
  <defs>
    <style>
      .st0 {
        isolation: isolate;
      }

      .st1 {
        fill: none;
        stroke: #000;
        stroke-miterlimit: 10;
        stroke-width: 20px;
      }
    </style>
  </defs>
  <rect class="st1" y="8.5" width="500" height="500"/>
  <g class="st0">
    <g class="st0">
      <path d="M42.1,139.6v-18h63v24.8h-4.5l-58.5-6.8ZM109.6,398.3l58.5,6.8v18H42.1v-18l58.5-6.8h9ZM84.9,261.1c0-46.3,0-93.1-1.4-139.5h43.2c-1.3,45.4-1.3,92.2-1.3,139.5v17.1c0,51.8,0,98.5,1.3,144.9h-43.2c1.4-45.4,1.4-92.2,1.4-139.5v-22.5ZM229.8,121.6l20.3,22.5H105.1v-22.5h160.6l3.1,80.1h-25.2l-14-80.1ZM210.4,279.6h-105.3v-20.7h105.3v20.7ZM196,263.4l6.8-47.7h20.2v111.1h-20.2l-6.8-49.9v-13.5Z"/>
      <path d="M326.6,328.6v-21.2c0-24.8-.5-38.7-1.3-56.7l-36-4v-15.8l61.2-27,6.8,4.5,5.4,56.2v63.9c0,27.9.5,74.2,1.3,94.5h-38.7c.9-20.2,1.3-66.6,1.3-94.5ZM292.8,407.3l49.5-9h9l49.5,9v15.8h-108v-15.8ZM344.6,267.9h25.6l-11.2,3.2c14.4-41.8,41.9-67,68.4-67s26.5,6.3,31.9,15.3c0,21.1-8.1,32.8-26.1,32.8s-18.9-4-27-10.8l-12.1-10.3,22-4.5c-27.9,14.4-44.1,36.9-54.5,71.5h-17.1v-30.1Z"/>
    </g>
  </g>
</svg>