<?xml version="1.0" encoding="UTF-8"?>
<svg id="Layer_1" xmlns="http://www.w3.org/2000/svg" version="1.1" viewBox="0 0 500 500">
  <!-- Generator: Adobe Illustrator 29.3.1, SVG Export Plug-In . SVG Version: 2.1.0 Build 151)  -->
  <defs>
    <style>
      .st0 {
        fill: none;
        stroke: #000;
        stroke-miterlimit: 10;
        stroke-width: 20px;
      }
    </style>
  </defs>
  <polygon class="st0" points="498.5 500.7 0 500.7 1.6 .7 500 .7 498.5 500.7"/>
  <g>
    <path d="M69.4,119.3v-18h56.9v24.8h-4.1l-52.8-6.8ZM130.3,378.1l52.8,6.8v18h-113.7v-18l52.8-6.8h8.1ZM108,240.8c0-46.3,0-93.1-1.2-139.5h39c-1.2,45.4-1.2,92.2-1.2,139.5v27.5c0,45.9,0,88.2,1.2,134.5h-39c1.2-45.4,1.2-92.2,1.2-139.5v-22.5ZM166.5,283.6h-40.2v-20.7h46.3c50,0,69.5-29.2,69.5-72s-21.9-68.8-71.1-68.8h-44.7v-20.7h52.4c67.4,0,101.9,36.9,101.9,89.5s-31.3,92.7-114.1,92.7Z"/>
    <path d="M391.1,386.2c8.9,0,17.1-4.1,27.6-12.6l9.3,12.2c-10.2,14.4-26.8,22.9-47.1,22.9s-45.5-16.2-45.5-50.8.4-20.2.4-37.8v-107.1h-34.1v-19.3l50.4-7.2-16.2,14.9,12.2-72.9h23.6l-3.2,78.7v145.8c0,23.4,8.9,33.3,22.7,33.3ZM424.4,189.5v23.4h-72.3v-23.4h72.3Z"/>
  </g>
</svg>